<svg width="100" height="500" viewBox="0 0 512 512" fill="none" xmlns="http://www.w3.org/2000/svg">
<path d="M256 512C397.385 512 512 397.385 512 256C512 114.615 397.385 0 256 0C114.615 0 0 114.615 0 256C0 397.385 114.615 512 256 512Z" fill="url(#paint0_linear)"/>
<path d="M161.687 350.313C158.171 346.797 152.481 346.797 148.965 350.313L110.798 388.48C107.282 391.996 107.282 397.687 110.798 401.203C114.314 404.719 120.004 404.719 123.52 401.203L161.687 363.036C165.203 359.52 165.203 353.829 161.687 350.313ZM174.409 375.758L161.687 388.48C158.171 391.996 158.171 397.687 161.687 401.203C165.203 404.719 170.893 404.719 174.409 401.203L187.131 388.48C190.647 384.964 190.647 379.274 187.131 375.758C183.615 372.242 177.925 372.242 174.409 375.758ZM123.52 324.869L110.798 337.591C107.282 341.107 107.282 346.798 110.798 350.314C114.314 353.83 120.004 353.83 123.52 350.314L136.242 337.591C139.758 334.075 139.758 328.385 136.242 324.869C132.726 321.353 127.036 321.353 123.52 324.869ZM405.957 113.671C405.385 109.72 402.28 106.614 398.329 106.043C396.201 105.738 367.23 101.943 329.52 111.033L400.968 182.481C410.057 144.77 406.262 115.799 405.957 113.671ZM231.659 165.84C206.826 190.673 172.246 234.568 159.754 264.121C158.331 267.494 159.095 271.389 161.686 273.979L174.408 286.701L212.575 248.534C226.602 234.507 249.431 234.501 263.464 248.534C277.497 262.567 277.491 285.396 263.464 299.423L225.297 337.59L238.019 350.313C240.609 352.903 244.504 353.667 247.877 352.245C277.145 339.874 320.822 305.677 346.158 280.341C371.526 254.972 386.379 227.416 395.135 202.095L309.902 116.862C284.584 125.619 257.028 140.472 231.659 165.84ZM339.799 172.201C353.832 186.234 353.826 209.063 339.799 223.09C325.772 237.117 302.943 237.123 288.91 223.09C274.877 209.057 274.883 186.228 288.91 172.201C302.937 158.174 325.766 158.168 339.799 172.201ZM327.077 210.368C334.097 203.348 334.09 191.937 327.077 184.923C320.064 177.91 308.652 177.903 301.632 184.923C294.612 191.943 294.619 203.354 301.632 210.368C308.646 217.381 320.057 217.388 327.077 210.368ZM245.782 370.762C245.458 377.209 242.934 383.567 238.02 388.48C234.504 391.996 234.504 397.687 238.02 401.203C238.796 401.979 257.464 419.926 288.909 388.48C310.922 366.467 317.393 344.491 318.656 328.236C294.447 347.168 271.926 361.613 254.885 368.819C251.926 370.066 248.856 370.599 245.782 370.762ZM123.52 273.979C128.433 269.066 134.79 266.543 141.236 266.218C141.398 263.15 141.931 260.084 143.175 257.132C150.392 240.061 164.84 217.532 183.751 193.345C167.496 194.61 145.527 201.084 123.52 223.09C92.075 254.535 110.021 273.203 110.798 273.979C114.313 277.496 120.004 277.496 123.52 273.979ZM250.743 261.257C243.73 254.243 232.318 254.237 225.299 261.257L174.41 312.146C167.39 319.166 167.397 330.577 174.41 337.59C181.423 344.604 192.835 344.61 199.855 337.59L250.744 286.701C257.762 279.682 257.756 268.271 250.743 261.257Z" fill="url(#paint1_linear)"/>
<defs>
<linearGradient id="paint0_linear" x1="256" y1="512" x2="256" y2="0" gradientUnits="userSpaceOnUse">
<stop stop-color="#ADDCFF"/>
<stop offset="0.5028" stop-color="#EAF6FF"/>
<stop offset="1" stop-color="#EAF6FF"/>
</linearGradient>
<linearGradient id="paint1_linear" x1="110.814" y1="401.106" x2="403.383" y2="108.538" gradientUnits="userSpaceOnUse">
<stop stop-color="#00C0FF"/>
<stop offset="1" stop-color="#5558FF"/>
</linearGradient>
</defs>
</svg>